<mxfile host="app.diagrams.net" modified="2023-12-07T20:31:10.717Z" agent="Mozilla/5.0 (X11; Linux x86_64) AppleWebKit/537.36 (KHTML, like Gecko) Chrome/117.0.0.0 Safari/537.36" etag="E1WTnnb-Y2G8ABI9t0zX" version="22.1.7" type="device">
  <diagram name="Сторінка-1" id="-kBWV_xa7_VIFWCBNMYT">
    <mxGraphModel dx="1362" dy="803" grid="1" gridSize="10" guides="1" tooltips="1" connect="1" arrows="1" fold="1" page="1" pageScale="1" pageWidth="827" pageHeight="1169" math="0" shadow="0">
      <root>
        <mxCell id="0" />
        <mxCell id="1" parent="0" />
        <mxCell id="9coYav3KC9tMrwDcC0KA-1" value="User" style="rounded=1;whiteSpace=wrap;html=1;container=0;labelBackgroundColor=none;fillColor=#09555B;strokeColor=#BAC8D3;fontColor=#EEEEEE;" parent="1" vertex="1">
          <mxGeometry x="40" y="320" width="80" height="80" as="geometry" />
        </mxCell>
        <mxCell id="9coYav3KC9tMrwDcC0KA-2" value="MainMenuForm" style="rounded=1;whiteSpace=wrap;html=1;container=0;labelBackgroundColor=none;fillColor=#09555B;strokeColor=#BAC8D3;fontColor=#EEEEEE;" parent="1" vertex="1">
          <mxGeometry x="200" y="340" width="120" height="60" as="geometry" />
        </mxCell>
        <mxCell id="9coYav3KC9tMrwDcC0KA-3" value="&lt;font style=&quot;font-size: 11px;&quot;&gt;CreateDatabaseDialog&lt;/font&gt;" style="rounded=1;whiteSpace=wrap;html=1;container=0;labelBackgroundColor=none;fillColor=#09555B;strokeColor=#BAC8D3;fontColor=#EEEEEE;" parent="1" vertex="1">
          <mxGeometry x="360" y="340" width="120" height="60" as="geometry" />
        </mxCell>
        <mxCell id="9coYav3KC9tMrwDcC0KA-4" value="DatabaseManager" style="rounded=1;whiteSpace=wrap;html=1;container=0;labelBackgroundColor=none;fillColor=#09555B;strokeColor=#BAC8D3;fontColor=#EEEEEE;" parent="1" vertex="1">
          <mxGeometry x="520" y="340" width="120" height="60" as="geometry" />
        </mxCell>
        <mxCell id="9coYav3KC9tMrwDcC0KA-5" value="DatabaseManager" style="rounded=1;whiteSpace=wrap;html=1;container=0;labelBackgroundColor=none;fillColor=#09555B;strokeColor=#BAC8D3;fontColor=#EEEEEE;" parent="1" vertex="1">
          <mxGeometry x="520" y="100" width="120" height="60" as="geometry" />
        </mxCell>
        <mxCell id="9coYav3KC9tMrwDcC0KA-6" value="&lt;font style=&quot;font-size: 11px;&quot;&gt;CreateDatabaseDialog&lt;/font&gt;" style="rounded=1;whiteSpace=wrap;html=1;container=0;labelBackgroundColor=none;fillColor=#09555B;strokeColor=#BAC8D3;fontColor=#EEEEEE;" parent="1" vertex="1">
          <mxGeometry x="360" y="100" width="120" height="60" as="geometry" />
        </mxCell>
        <mxCell id="9coYav3KC9tMrwDcC0KA-7" value="MainMenuForm" style="rounded=1;whiteSpace=wrap;html=1;container=0;labelBackgroundColor=none;fillColor=#09555B;strokeColor=#BAC8D3;fontColor=#EEEEEE;" parent="1" vertex="1">
          <mxGeometry x="200" y="100" width="120" height="60" as="geometry" />
        </mxCell>
        <mxCell id="9coYav3KC9tMrwDcC0KA-8" value="User" style="rounded=1;whiteSpace=wrap;html=1;container=0;labelBackgroundColor=none;fillColor=#09555B;strokeColor=#BAC8D3;fontColor=#EEEEEE;" parent="1" vertex="1">
          <mxGeometry x="40" y="80" width="80" height="80" as="geometry" />
        </mxCell>
        <mxCell id="9coYav3KC9tMrwDcC0KA-11" value="" style="endArrow=none;dashed=1;html=1;rounded=0;entryX=0.5;entryY=1;entryDx=0;entryDy=0;labelBackgroundColor=none;strokeColor=#0B4D6A;fontColor=default;" parent="1" edge="1">
          <mxGeometry width="50" height="50" relative="1" as="geometry">
            <mxPoint x="79.5" y="320" as="sourcePoint" />
            <mxPoint x="79.5" y="160" as="targetPoint" />
          </mxGeometry>
        </mxCell>
        <mxCell id="9coYav3KC9tMrwDcC0KA-13" value="" style="endArrow=none;dashed=1;html=1;rounded=0;entryX=0.5;entryY=1;entryDx=0;entryDy=0;labelBackgroundColor=none;strokeColor=#0B4D6A;fontColor=default;" parent="1" target="9coYav3KC9tMrwDcC0KA-6" edge="1">
          <mxGeometry width="50" height="50" relative="1" as="geometry">
            <mxPoint x="420" y="340" as="sourcePoint" />
            <mxPoint x="420" y="180" as="targetPoint" />
          </mxGeometry>
        </mxCell>
        <mxCell id="9coYav3KC9tMrwDcC0KA-14" value="" style="endArrow=none;dashed=1;html=1;rounded=0;entryX=0.5;entryY=1;entryDx=0;entryDy=0;exitX=0.5;exitY=0;exitDx=0;exitDy=0;labelBackgroundColor=none;strokeColor=#0B4D6A;fontColor=default;" parent="1" source="9coYav3KC9tMrwDcC0KA-4" target="9coYav3KC9tMrwDcC0KA-5" edge="1">
          <mxGeometry width="50" height="50" relative="1" as="geometry">
            <mxPoint x="430" y="350" as="sourcePoint" />
            <mxPoint x="430" y="190" as="targetPoint" />
            <Array as="points" />
          </mxGeometry>
        </mxCell>
        <mxCell id="9coYav3KC9tMrwDcC0KA-15" value="" style="endArrow=none;dashed=1;html=1;rounded=0;entryX=0.5;entryY=1;entryDx=0;entryDy=0;exitX=0.5;exitY=0;exitDx=0;exitDy=0;labelBackgroundColor=none;strokeColor=#0B4D6A;fontColor=default;" parent="1" source="9coYav3KC9tMrwDcC0KA-2" target="9coYav3KC9tMrwDcC0KA-7" edge="1">
          <mxGeometry width="50" height="50" relative="1" as="geometry">
            <mxPoint x="109.5" y="350" as="sourcePoint" />
            <mxPoint x="109.5" y="190" as="targetPoint" />
            <Array as="points" />
          </mxGeometry>
        </mxCell>
        <mxCell id="9coYav3KC9tMrwDcC0KA-30" value="SubmitSettings()" style="edgeLabel;html=1;align=center;verticalAlign=middle;resizable=0;points=[];container=0;labelBackgroundColor=none;fontColor=#006666;" parent="9coYav3KC9tMrwDcC0KA-15" vertex="1" connectable="0">
          <mxGeometry x="-0.0222" relative="1" as="geometry">
            <mxPoint as="offset" />
          </mxGeometry>
        </mxCell>
        <mxCell id="9coYav3KC9tMrwDcC0KA-16" value="" style="endArrow=classic;html=1;rounded=0;labelBackgroundColor=none;strokeColor=#0B4D6A;fontColor=#006666;" parent="1" edge="1">
          <mxGeometry width="50" height="50" relative="1" as="geometry">
            <mxPoint x="80" y="200" as="sourcePoint" />
            <mxPoint x="260" y="200" as="targetPoint" />
            <Array as="points" />
          </mxGeometry>
        </mxCell>
        <mxCell id="9coYav3KC9tMrwDcC0KA-17" value="" style="endArrow=classic;html=1;rounded=0;labelBackgroundColor=none;strokeColor=#0B4D6A;fontColor=#006666;" parent="1" edge="1">
          <mxGeometry width="50" height="50" relative="1" as="geometry">
            <mxPoint x="420" y="300" as="sourcePoint" />
            <mxPoint x="580" y="300" as="targetPoint" />
            <Array as="points">
              <mxPoint x="520" y="300" />
            </Array>
          </mxGeometry>
        </mxCell>
        <mxCell id="9coYav3KC9tMrwDcC0KA-18" value="" style="endArrow=classic;html=1;rounded=0;labelBackgroundColor=none;strokeColor=#0B4D6A;fontColor=#006666;" parent="1" edge="1">
          <mxGeometry width="50" height="50" relative="1" as="geometry">
            <mxPoint x="80" y="260" as="sourcePoint" />
            <mxPoint x="420" y="260" as="targetPoint" />
          </mxGeometry>
        </mxCell>
        <mxCell id="9coYav3KC9tMrwDcC0KA-19" value="" style="endArrow=classic;html=1;rounded=0;labelBackgroundColor=none;strokeColor=#0B4D6A;fontColor=#006666;" parent="1" edge="1">
          <mxGeometry width="50" height="50" relative="1" as="geometry">
            <mxPoint x="260" y="220" as="sourcePoint" />
            <mxPoint x="420" y="220" as="targetPoint" />
            <Array as="points" />
          </mxGeometry>
        </mxCell>
        <mxCell id="9coYav3KC9tMrwDcC0KA-21" value="" style="endArrow=classic;html=1;rounded=0;dashed=1;labelBackgroundColor=none;strokeColor=#0B4D6A;fontColor=default;" parent="1" edge="1">
          <mxGeometry width="50" height="50" relative="1" as="geometry">
            <mxPoint x="580" y="320" as="sourcePoint" />
            <mxPoint x="260" y="320" as="targetPoint" />
          </mxGeometry>
        </mxCell>
        <mxCell id="9coYav3KC9tMrwDcC0KA-23" value="Actor" style="shape=umlActor;verticalLabelPosition=bottom;verticalAlign=top;html=1;container=0;labelBackgroundColor=none;fillColor=#09555B;strokeColor=#BAC8D3;fontColor=#EEEEEE;" parent="1" vertex="1">
          <mxGeometry x="65" y="10" width="30" height="60" as="geometry" />
        </mxCell>
        <mxCell id="9coYav3KC9tMrwDcC0KA-24" value="Boundary Object" style="shape=umlBoundary;whiteSpace=wrap;html=1;container=0;labelBackgroundColor=none;fillColor=#09555B;strokeColor=#BAC8D3;fontColor=#EEEEEE;" parent="1" vertex="1">
          <mxGeometry x="370" y="10" width="100" height="80" as="geometry" />
        </mxCell>
        <mxCell id="9coYav3KC9tMrwDcC0KA-25" value="Boundary Object" style="shape=umlBoundary;whiteSpace=wrap;html=1;container=0;labelBackgroundColor=none;fillColor=#09555B;strokeColor=#BAC8D3;fontColor=#EEEEEE;" parent="1" vertex="1">
          <mxGeometry x="212.5" y="15" width="95" height="75" as="geometry" />
        </mxCell>
        <mxCell id="9coYav3KC9tMrwDcC0KA-26" value="Control Object" style="ellipse;shape=umlControl;whiteSpace=wrap;html=1;container=0;labelBackgroundColor=none;fillColor=#09555B;strokeColor=#BAC8D3;fontColor=#EEEEEE;" parent="1" vertex="1">
          <mxGeometry x="545" y="10" width="70" height="80" as="geometry" />
        </mxCell>
        <mxCell id="9coYav3KC9tMrwDcC0KA-27" value="&lt;font color=&quot;#006666&quot;&gt;return database&lt;/font&gt;" style="text;html=1;align=center;verticalAlign=middle;resizable=0;points=[];autosize=1;strokeColor=none;fillColor=none;container=0;labelBackgroundColor=none;fontColor=#EEEEEE;" parent="1" vertex="1">
          <mxGeometry x="375" y="298" width="110" height="30" as="geometry" />
        </mxCell>
        <mxCell id="9coYav3KC9tMrwDcC0KA-28" value="CreateDatabase(name)" style="text;html=1;align=center;verticalAlign=middle;resizable=0;points=[];autosize=1;strokeColor=none;fillColor=none;container=0;labelBackgroundColor=none;fontColor=#006666;" parent="1" vertex="1">
          <mxGeometry x="425" y="268" width="150" height="30" as="geometry" />
        </mxCell>
        <mxCell id="9coYav3KC9tMrwDcC0KA-31" value="OpenCreateDbDialog()" style="text;html=1;align=center;verticalAlign=middle;resizable=0;points=[];autosize=1;strokeColor=none;fillColor=none;container=0;labelBackgroundColor=none;fontColor=#006666;" parent="1" vertex="1">
          <mxGeometry x="265" y="198" width="150" height="30" as="geometry" />
        </mxCell>
        <mxCell id="9coYav3KC9tMrwDcC0KA-32" value="CreateDatabaseButtonClick()" style="text;html=1;align=center;verticalAlign=middle;resizable=0;points=[];autosize=1;strokeColor=none;fillColor=none;container=0;labelBackgroundColor=none;fontColor=#EEEEEE;" parent="1" vertex="1">
          <mxGeometry x="80" y="178" width="180" height="30" as="geometry" />
        </mxCell>
        <mxCell id="9coYav3KC9tMrwDcC0KA-202" value="User" style="rounded=1;whiteSpace=wrap;html=1;labelBackgroundColor=none;fillColor=#09555B;strokeColor=#BAC8D3;fontColor=#EEEEEE;" parent="1" vertex="1">
          <mxGeometry x="40" y="750" width="80" height="80" as="geometry" />
        </mxCell>
        <mxCell id="9coYav3KC9tMrwDcC0KA-203" value="DatabaseForm" style="rounded=1;whiteSpace=wrap;html=1;labelBackgroundColor=none;fillColor=#09555B;strokeColor=#BAC8D3;fontColor=#EEEEEE;" parent="1" vertex="1">
          <mxGeometry x="200" y="770" width="120" height="60" as="geometry" />
        </mxCell>
        <mxCell id="9coYav3KC9tMrwDcC0KA-204" value="InsertRowDialog" style="rounded=1;whiteSpace=wrap;html=1;labelBackgroundColor=none;fillColor=#09555B;strokeColor=#BAC8D3;fontColor=#EEEEEE;" parent="1" vertex="1">
          <mxGeometry x="360" y="770" width="120" height="60" as="geometry" />
        </mxCell>
        <mxCell id="9coYav3KC9tMrwDcC0KA-205" value="DatabaseManager" style="rounded=1;whiteSpace=wrap;html=1;labelBackgroundColor=none;fillColor=#09555B;strokeColor=#BAC8D3;fontColor=#EEEEEE;" parent="1" vertex="1">
          <mxGeometry x="520" y="770" width="120" height="60" as="geometry" />
        </mxCell>
        <mxCell id="9coYav3KC9tMrwDcC0KA-206" value="DatabaseManager" style="rounded=1;whiteSpace=wrap;html=1;labelBackgroundColor=none;fillColor=#09555B;strokeColor=#BAC8D3;fontColor=#EEEEEE;" parent="1" vertex="1">
          <mxGeometry x="520" y="530" width="120" height="60" as="geometry" />
        </mxCell>
        <mxCell id="9coYav3KC9tMrwDcC0KA-207" value="&lt;span style=&quot;font-size: 11px;&quot;&gt;InsertRowDialog&lt;/span&gt;" style="rounded=1;whiteSpace=wrap;html=1;labelBackgroundColor=none;fillColor=#09555B;strokeColor=#BAC8D3;fontColor=#EEEEEE;" parent="1" vertex="1">
          <mxGeometry x="360" y="530" width="120" height="60" as="geometry" />
        </mxCell>
        <mxCell id="9coYav3KC9tMrwDcC0KA-208" value="DatabaseForm" style="rounded=1;whiteSpace=wrap;html=1;labelBackgroundColor=none;fillColor=#09555B;strokeColor=#BAC8D3;fontColor=#EEEEEE;" parent="1" vertex="1">
          <mxGeometry x="200" y="530" width="120" height="60" as="geometry" />
        </mxCell>
        <mxCell id="9coYav3KC9tMrwDcC0KA-209" value="User" style="rounded=1;whiteSpace=wrap;html=1;labelBackgroundColor=none;fillColor=#09555B;strokeColor=#BAC8D3;fontColor=#EEEEEE;" parent="1" vertex="1">
          <mxGeometry x="40" y="510" width="80" height="80" as="geometry" />
        </mxCell>
        <mxCell id="9coYav3KC9tMrwDcC0KA-210" value="" style="endArrow=none;dashed=1;html=1;rounded=0;entryX=0.5;entryY=1;entryDx=0;entryDy=0;labelBackgroundColor=none;strokeColor=#0B4D6A;fontColor=default;" parent="1" edge="1">
          <mxGeometry width="50" height="50" relative="1" as="geometry">
            <mxPoint x="79.5" y="750" as="sourcePoint" />
            <mxPoint x="79.5" y="590" as="targetPoint" />
          </mxGeometry>
        </mxCell>
        <mxCell id="9coYav3KC9tMrwDcC0KA-211" value="" style="endArrow=none;dashed=1;html=1;rounded=0;entryX=0.5;entryY=1;entryDx=0;entryDy=0;labelBackgroundColor=none;strokeColor=#0B4D6A;fontColor=default;" parent="1" target="9coYav3KC9tMrwDcC0KA-207" edge="1">
          <mxGeometry width="50" height="50" relative="1" as="geometry">
            <mxPoint x="420" y="770" as="sourcePoint" />
            <mxPoint x="420" y="610" as="targetPoint" />
          </mxGeometry>
        </mxCell>
        <mxCell id="9coYav3KC9tMrwDcC0KA-242" value="return database" style="edgeLabel;html=1;align=center;verticalAlign=middle;resizable=0;points=[];labelBackgroundColor=none;fontColor=#006666;" parent="9coYav3KC9tMrwDcC0KA-211" vertex="1" connectable="0">
          <mxGeometry x="-0.5444" y="-1" relative="1" as="geometry">
            <mxPoint as="offset" />
          </mxGeometry>
        </mxCell>
        <mxCell id="9coYav3KC9tMrwDcC0KA-212" value="" style="endArrow=none;dashed=1;html=1;rounded=0;entryX=0.5;entryY=1;entryDx=0;entryDy=0;exitX=0.5;exitY=0;exitDx=0;exitDy=0;labelBackgroundColor=none;strokeColor=#0B4D6A;fontColor=default;" parent="1" source="9coYav3KC9tMrwDcC0KA-205" target="9coYav3KC9tMrwDcC0KA-206" edge="1">
          <mxGeometry width="50" height="50" relative="1" as="geometry">
            <mxPoint x="430" y="780" as="sourcePoint" />
            <mxPoint x="430" y="620" as="targetPoint" />
            <Array as="points" />
          </mxGeometry>
        </mxCell>
        <mxCell id="9coYav3KC9tMrwDcC0KA-213" value="" style="endArrow=none;dashed=1;html=1;rounded=0;entryX=0.5;entryY=1;entryDx=0;entryDy=0;exitX=0.5;exitY=0;exitDx=0;exitDy=0;labelBackgroundColor=none;strokeColor=#0B4D6A;fontColor=default;" parent="1" source="9coYav3KC9tMrwDcC0KA-203" target="9coYav3KC9tMrwDcC0KA-208" edge="1">
          <mxGeometry width="50" height="50" relative="1" as="geometry">
            <mxPoint x="109.5" y="780" as="sourcePoint" />
            <mxPoint x="109.5" y="620" as="targetPoint" />
            <Array as="points" />
          </mxGeometry>
        </mxCell>
        <mxCell id="9coYav3KC9tMrwDcC0KA-214" value="SubmitValues()" style="edgeLabel;html=1;align=center;verticalAlign=middle;resizable=0;points=[];labelBackgroundColor=none;fontColor=#006666;" parent="9coYav3KC9tMrwDcC0KA-213" vertex="1" connectable="0">
          <mxGeometry x="-0.0222" relative="1" as="geometry">
            <mxPoint as="offset" />
          </mxGeometry>
        </mxCell>
        <mxCell id="9coYav3KC9tMrwDcC0KA-215" value="" style="endArrow=classic;html=1;rounded=0;labelBackgroundColor=none;strokeColor=#0B4D6A;fontColor=#006666;" parent="1" edge="1">
          <mxGeometry width="50" height="50" relative="1" as="geometry">
            <mxPoint x="80" y="630" as="sourcePoint" />
            <mxPoint x="260" y="630" as="targetPoint" />
            <Array as="points" />
          </mxGeometry>
        </mxCell>
        <mxCell id="9coYav3KC9tMrwDcC0KA-216" value="" style="endArrow=classic;html=1;rounded=0;labelBackgroundColor=none;strokeColor=#0B4D6A;fontColor=#006666;" parent="1" edge="1">
          <mxGeometry width="50" height="50" relative="1" as="geometry">
            <mxPoint x="420" y="657" as="sourcePoint" />
            <mxPoint x="580" y="657" as="targetPoint" />
            <Array as="points">
              <mxPoint x="520" y="657" />
            </Array>
          </mxGeometry>
        </mxCell>
        <mxCell id="9coYav3KC9tMrwDcC0KA-217" value="" style="endArrow=classic;html=1;rounded=0;labelBackgroundColor=none;strokeColor=#0B4D6A;fontColor=#006666;" parent="1" edge="1">
          <mxGeometry width="50" height="50" relative="1" as="geometry">
            <mxPoint x="80" y="690" as="sourcePoint" />
            <mxPoint x="420" y="690" as="targetPoint" />
          </mxGeometry>
        </mxCell>
        <mxCell id="9coYav3KC9tMrwDcC0KA-218" value="" style="endArrow=classic;html=1;rounded=0;labelBackgroundColor=none;strokeColor=#0B4D6A;fontColor=#006666;" parent="1" edge="1">
          <mxGeometry width="50" height="50" relative="1" as="geometry">
            <mxPoint x="260" y="650" as="sourcePoint" />
            <mxPoint x="420" y="650" as="targetPoint" />
            <Array as="points" />
          </mxGeometry>
        </mxCell>
        <mxCell id="9coYav3KC9tMrwDcC0KA-219" value="" style="endArrow=classic;html=1;rounded=0;dashed=1;labelBackgroundColor=none;strokeColor=#0B4D6A;fontColor=default;" parent="1" edge="1">
          <mxGeometry width="50" height="50" relative="1" as="geometry">
            <mxPoint x="580" y="750" as="sourcePoint" />
            <mxPoint x="260" y="750" as="targetPoint" />
          </mxGeometry>
        </mxCell>
        <mxCell id="9coYav3KC9tMrwDcC0KA-221" value="Actor" style="shape=umlActor;verticalLabelPosition=bottom;verticalAlign=top;html=1;labelBackgroundColor=none;fillColor=#09555B;strokeColor=#BAC8D3;fontColor=#EEEEEE;" parent="1" vertex="1">
          <mxGeometry x="62.5" y="430" width="35" height="70" as="geometry" />
        </mxCell>
        <mxCell id="9coYav3KC9tMrwDcC0KA-222" value="Boundary Object" style="shape=umlBoundary;whiteSpace=wrap;html=1;labelBackgroundColor=none;fillColor=#09555B;strokeColor=#BAC8D3;fontColor=#EEEEEE;" parent="1" vertex="1">
          <mxGeometry x="370" y="440" width="100" height="80" as="geometry" />
        </mxCell>
        <mxCell id="9coYav3KC9tMrwDcC0KA-223" value="Boundary Object" style="shape=umlBoundary;whiteSpace=wrap;html=1;labelBackgroundColor=none;fillColor=#09555B;strokeColor=#BAC8D3;fontColor=#EEEEEE;" parent="1" vertex="1">
          <mxGeometry x="212.5" y="445" width="95" height="75" as="geometry" />
        </mxCell>
        <mxCell id="9coYav3KC9tMrwDcC0KA-224" value="Control Object" style="ellipse;shape=umlControl;whiteSpace=wrap;html=1;labelBackgroundColor=none;fillColor=#09555B;strokeColor=#BAC8D3;fontColor=#EEEEEE;" parent="1" vertex="1">
          <mxGeometry x="545" y="440" width="70" height="80" as="geometry" />
        </mxCell>
        <mxCell id="9coYav3KC9tMrwDcC0KA-226" value="InsertValues(values)" style="text;html=1;align=center;verticalAlign=middle;resizable=0;points=[];autosize=1;strokeColor=none;fillColor=none;labelBackgroundColor=none;fontColor=#006666;" parent="1" vertex="1">
          <mxGeometry x="435" y="628" width="130" height="30" as="geometry" />
        </mxCell>
        <mxCell id="9coYav3KC9tMrwDcC0KA-227" value="CreateInsertRowDialog()" style="text;html=1;align=center;verticalAlign=middle;resizable=0;points=[];autosize=1;strokeColor=none;fillColor=none;labelBackgroundColor=none;fontColor=#006666;" parent="1" vertex="1">
          <mxGeometry x="260" y="628" width="160" height="30" as="geometry" />
        </mxCell>
        <mxCell id="9coYav3KC9tMrwDcC0KA-228" value="InsertRowButtonClick()" style="text;html=1;align=center;verticalAlign=middle;resizable=0;points=[];autosize=1;strokeColor=none;fillColor=none;labelBackgroundColor=none;fontColor=#006666;" parent="1" vertex="1">
          <mxGeometry x="95" y="608" width="150" height="30" as="geometry" />
        </mxCell>
        <mxCell id="9coYav3KC9tMrwDcC0KA-229" value="Column" style="rounded=1;whiteSpace=wrap;html=1;labelBackgroundColor=none;fillColor=#09555B;strokeColor=#BAC8D3;fontColor=#EEEEEE;" parent="1" vertex="1">
          <mxGeometry x="690" y="530" width="90" height="60" as="geometry" />
        </mxCell>
        <mxCell id="9coYav3KC9tMrwDcC0KA-231" value="Column" style="rounded=1;whiteSpace=wrap;html=1;labelBackgroundColor=none;fillColor=#09555B;strokeColor=#BAC8D3;fontColor=#EEEEEE;" parent="1" vertex="1">
          <mxGeometry x="690" y="770" width="90" height="60" as="geometry" />
        </mxCell>
        <mxCell id="9coYav3KC9tMrwDcC0KA-237" value="Entity Object" style="ellipse;shape=umlEntity;whiteSpace=wrap;html=1;labelBackgroundColor=none;fillColor=#09555B;strokeColor=#BAC8D3;fontColor=#EEEEEE;" parent="1" vertex="1">
          <mxGeometry x="696.25" y="450" width="77.5" height="70" as="geometry" />
        </mxCell>
        <mxCell id="9coYav3KC9tMrwDcC0KA-238" value="" style="endArrow=none;dashed=1;html=1;rounded=0;entryX=0.5;entryY=1;entryDx=0;entryDy=0;exitX=0.5;exitY=0;exitDx=0;exitDy=0;labelBackgroundColor=none;strokeColor=#0B4D6A;fontColor=default;" parent="1" edge="1">
          <mxGeometry width="50" height="50" relative="1" as="geometry">
            <mxPoint x="730" y="770" as="sourcePoint" />
            <mxPoint x="730" y="590" as="targetPoint" />
            <Array as="points" />
          </mxGeometry>
        </mxCell>
        <mxCell id="9coYav3KC9tMrwDcC0KA-239" value="" style="endArrow=classic;html=1;rounded=0;dashed=1;labelBackgroundColor=none;strokeColor=#0B4D6A;fontColor=#006666;" parent="1" edge="1">
          <mxGeometry width="50" height="50" relative="1" as="geometry">
            <mxPoint x="725" y="740" as="sourcePoint" />
            <mxPoint x="580" y="740" as="targetPoint" />
          </mxGeometry>
        </mxCell>
        <mxCell id="9coYav3KC9tMrwDcC0KA-241" value="" style="endArrow=classic;html=1;rounded=0;labelBackgroundColor=none;strokeColor=#0B4D6A;fontColor=#006666;" parent="1" edge="1">
          <mxGeometry width="50" height="50" relative="1" as="geometry">
            <mxPoint x="580" y="680" as="sourcePoint" />
            <mxPoint x="740" y="680" as="targetPoint" />
            <Array as="points">
              <mxPoint x="680" y="680" />
            </Array>
          </mxGeometry>
        </mxCell>
        <mxCell id="9coYav3KC9tMrwDcC0KA-243" value="Validate()" style="text;html=1;align=center;verticalAlign=middle;resizable=0;points=[];autosize=1;strokeColor=none;fillColor=none;labelBackgroundColor=none;fontColor=#006666;" parent="1" vertex="1">
          <mxGeometry x="615" y="658" width="70" height="30" as="geometry" />
        </mxCell>
        <mxCell id="9coYav3KC9tMrwDcC0KA-244" value="&lt;font color=&quot;#006666&quot;&gt;return true&lt;/font&gt;" style="text;html=1;align=center;verticalAlign=middle;resizable=0;points=[];autosize=1;strokeColor=none;fillColor=none;labelBackgroundColor=none;fontColor=#EEEEEE;" parent="1" vertex="1">
          <mxGeometry x="610" y="718" width="80" height="30" as="geometry" />
        </mxCell>
      </root>
    </mxGraphModel>
  </diagram>
</mxfile>
